HIERARCHY
ROOT root
{
	OFFSET	0	13.1	24.9
	CHANNELS 6  Xposition Yposition Zposition Xrotation Yrotation Zrotation
	JOINT spine_1
	{
		OFFSET	0	9.99999	0
		CHANNELS 3  Xrotation Yrotation Zrotation
		JOINT spine_2
		{
			OFFSET	0	112	-10
			CHANNELS 3  Xrotation Yrotation Zrotation
			JOINT spine_3
			{
				OFFSET	0	206.5	19.3
				CHANNELS 3  Xrotation Yrotation Zrotation
				JOINT spine_4
				{
					OFFSET	0	110.4	14.6
					CHANNELS 3  Xrotation Yrotation Zrotation
					JOINT neck_1
					{
						OFFSET	0	71.8	-50.3
						CHANNELS 3  Xrotation Yrotation Zrotation
						JOINT neck_2
						{
							OFFSET	0	86.2	-25.8
							CHANNELS 3  Xrotation Yrotation Zrotation
							JOINT head_ee
							{
								OFFSET	0	179.8	-8.7
								CHANNELS 3  Xrotation Yrotation Zrotation
								End Site
								{
									OFFSET	1	0	0
								}
							}
						}
					}
					JOINT left_clavicle
					{
						OFFSET	-43.2	22.4	-70.8
						CHANNELS 3  Xrotation Yrotation Zrotation
						JOINT left_shoulder
						{
							OFFSET	-93.9	-5.79999	48.7
							CHANNELS 3  Xrotation Yrotation Zrotation
							JOINT left_elbow
							{
								OFFSET	-291.4	-30.8	15.2
								CHANNELS 3  Xrotation Yrotation Zrotation
								JOINT left_lowarm_twist
								{
									OFFSET	-110.7	-3.89999	13.6
									CHANNELS 3  Xrotation Yrotation Zrotation
									JOINT left_hand
									{
										OFFSET	-110.7	-3.89999	13.6
										CHANNELS 3  Xrotation Yrotation Zrotation
										JOINT left_ee
										{
											OFFSET	-80.8	-5.10001	12.1
											CHANNELS 3  Xrotation Yrotation Zrotation
											End Site
											{
												OFFSET	1	0	0
											}
										}
									}
								}
							}
						}
					}
					JOINT right_clavicle
					{
						OFFSET	43.2	22.4	-70.8
						CHANNELS 3  Xrotation Yrotation Zrotation
						JOINT right_shoulder
						{
							OFFSET	93.9	-5.79999	48.7
							CHANNELS 3  Xrotation Yrotation Zrotation
							JOINT right_elbow
							{
								OFFSET	291.4	-30.8	15.2
								CHANNELS 3  Xrotation Yrotation Zrotation
								JOINT right_lowarm_twist
								{
									OFFSET	110.7	-3.89999	13.6
									CHANNELS 3  Xrotation Yrotation Zrotation
									JOINT right_hand
									{
										OFFSET	110.7	-3.89999	13.6
										CHANNELS 3  Xrotation Yrotation Zrotation
										JOINT right_ee
										{
											OFFSET	80.8	-5.10001	12.1
											CHANNELS 3  Xrotation Yrotation Zrotation
											End Site
											{
												OFFSET	1	0	0
											}
										}
									}
								}
							}
						}
					}
				}
			}
		}
	}
	JOINT left_hip
	{
		OFFSET	-82.8	-127.5	0.300001
		CHANNELS 3  Xrotation Yrotation Zrotation
		JOINT left_knee
		{
			OFFSET	-28.2	-396.7	2.2
			CHANNELS 3  Xrotation Yrotation Zrotation
			JOINT left_ankle
			{
				OFFSET	-11.7	-411.3	35.4
				CHANNELS 3  Xrotation Yrotation Zrotation
				JOINT left_toes
				{
					OFFSET	0	-60	-88.6
					CHANNELS 3  Xrotation Yrotation Zrotation
					JOINT left_foot_ee
					{
						OFFSET	-22.5	-16.5	-42.2
						CHANNELS 3  Xrotation Yrotation Zrotation
						End Site
						{
							OFFSET	1	0	0
						}
					}
				}
			}
		}
	}
	JOINT right_hip
	{
		OFFSET	82.8	-127.5	0.300001
		CHANNELS 3  Xrotation Yrotation Zrotation
		JOINT right_knee
		{
			OFFSET	28.2	-396.7	2.2
			CHANNELS 3  Xrotation Yrotation Zrotation
			JOINT right_ankle
			{
				OFFSET	11.7	-411.3	35.4
				CHANNELS 3  Xrotation Yrotation Zrotation
				JOINT right_toes
				{
					OFFSET	0	-60	-88.6
					CHANNELS 3  Xrotation Yrotation Zrotation
					JOINT right_foot_ee
					{
						OFFSET	22.5	-16.5	-42.2
						CHANNELS 3  Xrotation Yrotation Zrotation
						End Site
						{
							OFFSET	1	0	0
						}
					}
				}
			}
		}
	}
}
MOTION
Frames: 8
Frame Time: 0.02
2447.38 736.534 -676.743 149.92 -81.0301 158.687 -0.0633512 -0.616859 -2.72941 -0.0593154 -0.441998 -2.76309 -0.0354953 0.150283 -2.79416 -0.0462705 -0.292714 -2.78285 -18.3815 6.76457 6.81078 -18.3532 9.37503 8.9678 -0.0 0.0 -0.0 5.39302 12.1166 10.513 -1.03759 -36.3755 60.8822 1.38786 -34.5069 0.431055 -84.7583 -8.4217 5.19046 -0.391567 20.7256 6.01767 -0.0 0.0 -0.0 -0.427355 5.81751 1.55611 -4.59248 22.3068 -72.9609 0.432309 12.0877 -0.0457723 49.25 0.915641 6.03336 0.570292 -4.77892 -5.75769 0.0 0.0 0.0 2.77317 26.6524 -8.3894 -1.60435 0.0627261 0.238213 26.3817 8.91084 -3.49221 -5.30663 0.0 0.0 -0.0 0.0 -0.0 9.0806 11.5275 -11.5067 -38.926 0.399859 -5.84736 5.102 -6.62431 0.736887 7.0059 -0.0 -0.0 0.0 0.0 0.0 
2462.18 736.271 -678.001 152.724 -79.9922 161.512 0.0929391 -0.580399 -2.80285 0.0972201 -0.400944 -2.83407 0.119432 0.197709 -2.85544 0.108145 -0.255547 -2.85085 -19.0962 6.47237 7.48273 -19.0281 8.55593 9.54295 -0.0 0.0 -0.0 5.63049 11.5582 10.929 0.263065 -35.812 60.112 1.46067 -35.8862 0.47302 -84.2365 -8.35635 5.2027 -0.960338 22.6649 3.481 -0.0 0.0 -0.0 -0.678093 3.75801 1.79835 -5.03118 21.7234 -72.6311 0.279277 7.8768 -0.0192273 49.2036 0.912385 6.02839 0.434095 -5.92585 -5.32095 0.0 0.0 0.0 -1.38357 25.3511 -7.17095 1.27752 -0.0547111 -0.188401 26.6564 9.61037 -3.5255 -4.79874 0.0 0.0 -0.0 0.0 -0.0 12.1131 10.3606 -13.0451 -39.863 0.458072 -5.9791 7.73027 -5.44291 1.10826 7.87043 -0.0 -0.0 0.0 0.0 0.0 
2479.73 736.419 -682.126 150.048 -78.9955 158.581 0.107895 -0.621677 -2.86303 0.112348 -0.438313 -2.89675 0.137008 0.173268 -2.92457 0.12519 -0.290587 -2.91526 -19.3585 7.45433 7.34104 -19.3491 10.5625 9.83992 -0.0 0.0 -0.0 6.0248 10.957 11.6258 1.03479 -35.2296 59.1189 1.51775 -36.9351 0.506901 -85.0303 -8.45572 5.18384 -1.36332 24.1146 1.79915 -0.0 0.0 -0.0 -1.1985 2.58179 2.67495 -6.13314 21.7637 -71.9969 0.1683 4.76589 -0.00700362 48.2142 0.843955 5.92181 0.18881 -6.08328 -3.77559 0.0 0.0 0.0 -3.16762 29.9011 -6.69836 0.226668 -0.00939981 -0.033514 26.2791 10.8758 -3.48752 -3.70651 0.0 0.0 -0.0 0.0 -0.0 13.5752 10.0971 -11.9135 -38.5197 0.375286 -5.78993 8.81699 -3.37784 1.26233 7.93386 -0.0 -0.0 0.0 0.0 0.0 
2492.08 733.414 -687.2 149.087 -78.8155 156.893 0.188984 -0.625051 -2.89518 0.19354 -0.439638 -2.92904 0.218458 0.174481 -2.95669 0.20638 -0.294454 -2.94717 -18.2973 7.99925 8.28352 -18.2421 10.9534 10.801 -0.0 0.0 -0.0 6.41289 10.3365 12.3246 2.99529 -34.6177 58.7393 1.62364 -38.8068 0.571914 -84.9151 -8.44132 5.18666 -1.74837 25.2235 0.130826 -0.0 0.0 -0.0 -1.62596 1.67255 3.38926 -7.39612 20.7236 -71.1476 0.195871 5.54212 -0.0094805 48.796 0.883968 5.98462 -0.36837 -8.58637 -1.18763 0.0 0.0 0.0 -5.94962 28.5046 -4.59036 1.35162 -0.0580136 -0.199291 28.0774 4.96364 -3.68014 -2.55536 0.0 0.0 -0.0 0.0 -0.0 17.6792 11.8331 -11.9789 -40.7136 0.512789 -6.09788 10.4835 -2.52404 1.49408 8.73423 -0.0 -0.0 0.0 0.0 0.0 
2502.91 731.617 -691.916 152.352 -78.5625 159.491 0.230638 -0.576167 -2.92216 0.235304 -0.389138 -2.95287 0.257722 0.226846 -2.96973 0.245499 -0.244802 -2.96831 -17.979 7.9452 8.44876 -17.9055 10.7066 10.8952 -0.0 0.0 -0.0 7.21979 8.86256 13.8249 3.72192 -34.3759 57.2146 1.64307 -39.1401 0.584138 -84.5336 -8.39357 5.1958 -2.26728 27.0564 -1.86072 -0.0 0.0 -0.0 -2.06463 0.810704 4.1206 -8.33653 19.7745 -70.1894 0.200855 5.68223 -0.00996789 49.6084 0.940916 6.07166 -0.807768 -8.27621 1.78333 0.0 0.0 0.0 -6.25698 29.5045 -3.12881 1.17174 -0.050021 -0.172846 27.6402 4.29524 -3.63302 -0.934357 0.0 0.0 -0.0 0.0 -0.0 21.0581 14.6329 -11.9851 -34.1681 0.138016 -5.16497 10.56 -3.93288 1.50158 9.14034 -0.0 -0.0 0.0 0.0 0.0 
2507.25 730.921 -694.26 159.128 -78.5838 166.212 0.18902 -0.55907 -3.1507 0.194472 -0.357554 -3.17985 0.217038 0.306827 -3.18514 0.202938 -0.199793 -3.19363 -18.4606 7.74162 8.78211 -18.3638 10.2168 11.1783 -0.0 0.0 -0.0 7.72918 7.7807 14.8089 5.4726 -34.6079 56.2541 1.75419 -40.9861 0.655666 -84.1059 -8.33998 5.20567 -2.72262 28.3669 -3.66388 -0.0 0.0 -0.0 -2.17515 1.35008 4.42162 -8.7639 18.8665 -69.6291 0.201348 5.69609 -0.0100168 50.5532 1.0087 6.17187 -1.19896 -9.01111 3.98505 0.0 0.0 0.0 -6.1786 29.2357 -2.62528 2.66106 -0.118694 -0.391035 27.638 2.00785 -3.64095 0.192026 -0.0 -0.0 -0.0 0.0 -0.0 25.1394 16.9871 -12.0794 -30.5451 -0.0228031 -4.63239 10.875 -4.64252 1.54343 9.31985 -0.0 -0.0 0.0 0.0 0.0 
2515.94 731.027 -696.869 165.23 -77.7581 172.25 0.176255 -0.491637 -3.27361 0.182172 -0.282448 -3.29823 0.201258 0.405819 -3.28534 0.186217 -0.117839 -3.30819 -18.101 7.73935 8.82508 -17.996 10.1268 11.1768 -0.0 0.0 -0.0 7.91563 6.70132 15.2085 6.097 -34.4963 54.4857 1.83136 -42.2103 0.706905 -83.8356 -8.30607 5.2117 -2.96128 28.2729 -5.00913 -0.0 0.0 -0.0 -2.18406 2.04158 4.54707 -9.71216 18.1279 -69.0963 0.216717 6.12769 -0.0115998 51.4168 1.07209 6.26248 -1.58892 -9.46705 6.29482 0.0 0.0 0.0 -4.32233 30.1169 -3.2431 0.43809 -0.0182874 -0.0647406 27.2322 1.65992 -3.59747 1.23746 -0.0 -0.0 -0.0 0.0 -0.0 26.2996 19.0508 -11.7534 -23.8369 -0.230388 -3.6244 13.2669 -4.49728 1.86632 9.05061 -0.0 -0.0 0.0 0.0 0.0 
2527.15 728.936 -697.712 166.299 -77.7588 173.34 0.0834613 -0.521876 -3.36778 0.0897182 -0.306644 -3.39412 0.111058 0.407302 -3.38353 0.0951088 -0.131854 -3.40538 -18.0174 8.15553 9.57942 -17.8803 10.5056 12.0226 -0.0 0.0 -0.0 8.23391 6.49042 15.8195 7.12386 -34.7864 54.1685 1.97337 -44.3447 0.804275 -84.1144 -8.34105 5.20548 -3.19869 28.5668 -6.13274 -0.0 0.0 -0.0 -2.13003 2.38027 4.49236 -11.007 17.4446 -68.6892 0.199171 5.63491 -0.00980188 52.0713 1.12105 6.33052 -1.98427 -10.1064 8.54893 0.0 0.0 0.0 -4.87016 30.0257 -3.06445 0.0513245 -0.00211686 -0.00759172 27.3854 0.309226 -3.62264 2.18213 -0.0 -0.0 -0.0 0.0 -0.0 28.1768 21.8055 -12.2063 -19.0296 -0.305923 -2.89083 14.0161 -4.88299 1.96523 8.72025 -0.0 -0.0 0.0 0.0 0.0 
